<svg width="72" height="72" viewBox="0 0 72 72" fill="none" xmlns="http://www.w3.org/2000/svg">
<rect width="72" height="72" fill="white"/>
<path d="M8.11035 47.095H19.2186V46.8181C15.7723 46.695 14.5723 45.7103 14.6645 42.8794L14.7569 28.5094C14.7261 25.6785 15.7107 24.6939 18.4494 24.5708V24.2938H8.66422V24.5708C11.4028 24.6939 12.3875 25.6785 12.3875 28.5094L12.6337 42.8794C12.726 45.7103 11.5567 46.695 8.11035 46.8181V47.095Z" fill="black"/>
<path d="M19.8649 47.0951H30.9732V46.8182C27.5268 46.6952 26.3576 45.7105 26.4498 42.8795L26.5729 33.1559L28.1422 31.2482C28.6654 30.602 29.5577 30.3558 30.327 30.7251L33.0964 31.9559C33.9887 32.4174 34.9118 32.1713 35.6503 31.2482L37.0658 29.4019L36.8196 29.2173C35.8658 30.325 34.8811 30.5712 33.4964 29.925C33.4964 29.925 31.3283 28.9494 30.3147 28.4933C30.013 28.3575 29.6576 28.44 29.4466 28.6949C28.5999 29.7172 26.5422 32.2021 26.5422 32.2021C26.4806 30.8481 26.2344 29.8942 25.7114 29.0019C25.7114 29.0019 25.6906 28.9696 25.6752 28.9594C25.6598 28.9491 25.6375 28.9332 25.619 28.9403C25.2462 29.0845 25.1728 29.6079 24.1149 29.8636C23.4632 30.021 21.9406 30.4005 21.3784 30.573C19.9541 31.0101 19.8341 31.2174 19.8341 31.2174L19.9264 31.4635C21.1359 30.7623 22.6432 30.7486 23.2213 31.0615C24.0682 31.52 24.252 32.3304 24.2343 33.956L24.3882 42.8795C24.4805 45.7105 23.3112 46.6952 19.8649 46.8182V47.0951Z" fill="black"/>
<path d="M37.8658 31.2174L37.9628 31.6704C39.1115 30.9936 40.7616 31.1855 41.3419 31.5026C41.7299 31.7145 42.2862 32.1079 42.2661 33.956L42.4199 42.8795C42.5122 45.7104 41.343 46.6951 37.8966 46.8182V47.0951H49.0049V46.8182C45.5586 46.6951 44.3892 45.7104 44.4816 42.8795L44.6662 29.0018L44.5739 28.9403C44.127 29.3651 43.8489 29.865 43.1689 30.0662C41.7855 30.4757 40.2188 30.6355 37.8658 31.2174Z" fill="black"/>
<path d="M56.7898 47.7105C60.7284 47.7105 63.8055 45.3104 63.8055 42.2641C63.8055 40.0794 62.1747 38.4177 58.6976 37.2792C56.9744 36.6946 55.6513 36.2638 53.8665 35.6791C52.3895 35.156 51.3741 34.356 51.3741 33.0944C51.3741 31.1866 53.2203 29.7711 56.3282 29.7711C59.8361 29.7711 62.1747 32.2328 62.5747 36.1099H62.9132C63.3973 35.4513 63.6867 34.8325 63.7934 34.2268C64.004 33.0308 63.4815 31.8746 62.233 30.6262C61.0216 29.4148 59.2207 28.9095 56.7898 28.9095C53.0357 28.9095 50.1125 31.0635 50.1125 33.7714C50.1125 35.9253 51.3125 37.31 53.6819 38.0792C55.1282 38.5408 57.4359 39.3101 58.913 39.8024C60.3899 40.2948 62.7285 41.4025 62.7285 43.1565C62.7285 45.2489 60.6054 46.6028 57.5283 46.6028C53.1896 46.6028 51.3753 43.8334 50.9446 39.8024C48.4101 42.6154 50.5409 45.9424 51.9873 46.7355C52.8955 47.2334 54.482 47.7105 56.7898 47.7105Z" fill="black"/>
<path fill-rule="evenodd" clip-rule="evenodd" d="M42.7068 25.3197C43.0487 25.3197 43.4201 25.1484 43.7604 24.9639C44.4096 24.6119 44.9451 24.2123 44.9451 24.8648C44.9451 25.8591 44.1379 26.6664 43.1435 26.6664C42.1492 26.6664 41.3419 25.8591 41.3419 24.8648C41.3419 23.8704 41.7124 25.3197 42.7068 25.3197Z" fill="black"/>
</svg>
